<?xml version="1.0" encoding="iso-8859-1"?>
<!-- Generator: Adobe Illustrator 19.0.0, SVG Export Plug-In . SVG Version: 6.00 Build 0)  -->
<svg version="1.1" id="Capa_1" xmlns="http://www.w3.org/2000/svg" xmlns:xlink="http://www.w3.org/1999/xlink" x="0px" y="0px"
	 viewBox="0 0 463.377 463.377" style="enable-background:new 0 0 463.377 463.377;" xml:space="preserve">
<g>
	<g>
		<path d="M422.384,270.04c-0.042-0.011-0.085-0.021-0.127-0.031c-3.799-0.901-7.611,1.443-8.52,5.24
			c-24.043,100.531-125.029,162.536-225.56,138.493c-55.2-13.202-101.428-50.739-125.68-102.053l-14.16,2.96
			c45.781,101.299,165.012,146.306,266.312,100.526c56.695-25.622,98.354-76.022,112.848-136.526
			C428.462,274.859,426.173,271.005,422.384,270.04z"/>
	</g>
</g>
<g>
	<g>
		<path d="M94.944,283.22c-0.236-1.252-0.805-2.417-1.647-3.372l-27.56-30.72l-27.24-30.4c-2.402-3.086-6.85-3.64-9.936-1.238
			c-1.116,0.869-1.947,2.053-2.384,3.398l-12.96,39.24l-12.88,39.2c-1.189,3.725,0.868,7.708,4.593,8.897
			c1.101,0.351,2.27,0.428,3.407,0.223l40.4-8.48l40.56-8.48C93.14,290.765,95.668,287.063,94.944,283.22z M46.057,286.089l-28.44,6
			l9.04-27.6l9.08-27.56l19.36,21.6l19.36,21.6L46.057,286.089z"/>
	</g>
</g>
<g>
	<g>
		<path d="M463.297,160.409c-0.801-3.818-4.539-6.268-8.36-5.48l-40.4,8.48l-40.36,8.28c-3.843,0.724-6.371,4.426-5.647,8.268
			c0.236,1.252,0.805,2.417,1.647,3.372l27.56,30.72l27.24,30.4c2.402,3.086,6.85,3.64,9.936,1.238
			c1.116-0.869,1.947-2.052,2.384-3.398l12.84-39.24l12.84-39.24C463.361,162.719,463.471,161.551,463.297,160.409z
			 M436.777,198.889l-9.04,27.56l-19.36-21.6l-19.36-21.6l28.4-5.96l28.4-5.96L436.777,198.889z"/>
	</g>
</g>
<g>
	<g>
		<path d="M148.825,48.203C92.131,73.825,50.471,124.225,35.977,184.729c-1.078,3.759,1.096,7.679,4.855,8.757
			s7.679-1.096,8.757-4.855c0.059-0.205,0.108-0.413,0.148-0.622C73.824,87.489,174.837,25.527,275.358,49.614
			c55.182,13.223,101.385,50.766,125.619,102.075l14.16-2.96C369.356,47.429,250.125,2.422,148.825,48.203z"/>
	</g>
</g>
<g>
	<g>
		<path d="M305.977,106.969c0-3.91-3.17-7.08-7.08-7.08h-91.56c-3.059,0.004-5.769,1.972-6.72,4.88l-42.6,130.36
			c-1.48,3.619,0.254,7.753,3.873,9.233c0.865,0.354,1.792,0.533,2.727,0.527h32l-28,109.08c-1.316,3.682,0.601,7.734,4.283,9.05
			c2.741,0.98,5.802,0.182,7.717-2.01l118.36-137.68c2.719-2.81,2.646-7.292-0.164-10.011c-1.378-1.334-3.239-2.052-5.156-1.989
			h-41.52l52.72-100.48C305.599,109.691,305.988,108.343,305.977,106.969z M234.177,215.329c-1.789,3.477-0.422,7.746,3.055,9.535
			c0.998,0.513,2.103,0.782,3.225,0.785h37.72l-88.72,103.16l22.96-89.12c0.95-3.793-1.355-7.638-5.148-8.588
			c-0.553-0.139-1.122-0.21-1.692-0.212h-31.2l38.08-116.8h74.72L234.177,215.329z"/>
	</g>
</g>
<g>
</g>
<g>
</g>
<g>
</g>
<g>
</g>
<g>
</g>
<g>
</g>
<g>
</g>
<g>
</g>
<g>
</g>
<g>
</g>
<g>
</g>
<g>
</g>
<g>
</g>
<g>
</g>
<g>
</g>
</svg>
